<?xml version="1.0" standalone="no"?>
<!DOCTYPE svg PUBLIC "-//W3C//DTD SVG 20010904//EN"
 "http://www.w3.org/TR/2001/REC-SVG-20010904/DTD/svg10.dtd">
<svg version="1.0" xmlns="http://www.w3.org/2000/svg"
 width="60.000000pt" height="60.000000pt" viewBox="0 0 500.000000 500.000000"
 preserveAspectRatio="xMidYMid meet">

<g transform="translate(0.000000,500.000000) scale(0.100000,-0.100000)"
fill="#000000" stroke="none">
<path d="M2500 3137 c0 -398 3 -607 10 -607 6 0 10 -10 10 -22 0 -20 1 -21 20
-3 20 18 20 31 20 600 l0 581 -30 29 -30 29 0 -607z"/>
<path d="M1365 2988 c-203 -409 -472 -950 -598 -1203 -126 -253 -233 -470
-238 -482 -8 -21 -6 -23 24 -23 l33 0 117 240 117 240 120 0 c74 0 120 -4 120
-10 0 -6 -52 -114 -115 -240 l-115 -230 38 0 38 0 116 240 116 240 599 0 598
0 120 -240 c120 -240 120 -240 152 -240 18 0 33 2 33 5 0 3 -52 109 -115 235
-63 126 -115 232 -115 235 0 3 55 5 123 5 l122 0 120 -240 c119 -238 120 -240
152 -240 l32 0 -52 108 -52 107 -6 445 c-3 245 -9 460 -14 478 -5 22 -13 32
-26 32 -18 0 -19 -17 -21 -402 l-3 -403 -45 88 -44 87 -912 0 c-501 0 -913 3
-917 6 -3 4 19 55 49 115 l54 109 801 0 801 0 -6 23 c-3 13 -6 112 -7 220 -1
108 -5 197 -9 197 -4 0 -16 -12 -26 -27 -15 -21 -20 -53 -24 -133 l-5 -105
-38 73 c-31 60 -41 72 -62 72 -14 0 -25 5 -25 12 0 9 -3 9 -11 1 -7 -7 7 -45
50 -132 34 -66 61 -125 61 -131 0 -6 -45 -10 -120 -10 l-120 0 -52 105 c-49
96 -57 106 -100 128 l-46 23 59 -118 c32 -65 59 -122 59 -128 0 -7 -141 -10
-415 -10 -228 0 -415 2 -415 5 0 11 415 835 421 835 3 0 64 -118 135 -262
l129 -263 3 66 3 65 -116 232 c-63 128 -115 239 -115 247 0 26 111 238 120
229 4 -5 67 -127 139 -271 128 -256 132 -263 161 -263 17 0 30 4 30 9 0 4 -75
160 -166 346 l-166 338 -326 -654 -327 -654 -117 -3 c-101 -2 -118 0 -118 13
0 8 172 359 382 779 372 746 381 764 368 795 -7 17 -16 31 -19 31 -4 0 -173
-334 -376 -742z"/>
<path d="M4128 2920 l-3 -800 -667 667 -668 668 0 -442 c0 -309 3 -444 11
-449 6 -3 9 -24 7 -46 -3 -34 -1 -38 17 -36 19 3 20 12 25 200 l5 197 813
-810 812 -811 0 49 0 48 -815 815 -815 815 0 152 c0 84 2 153 4 153 1 0 368
-366 814 -812 l812 -813 0 1028 0 1027 -30 0 -30 0 0 -945 c0 -532 -4 -945 -9
-945 -5 0 -54 47 -110 105 l-101 105 0 178 c0 97 -1 475 0 840 l0 662 -35 0
-35 0 -2 -800z"/>
<path d="M2180 2715 c0 -12 45 -95 52 -95 14 0 21 51 9 76 -7 16 -19 24 -36
24 -14 0 -25 -2 -25 -5z"/>
<path d="M2262 2612 l-22 -23 21 -42 c28 -54 24 -52 52 -30 l24 19 -26 50 -26
49 -23 -23z"/>
<path d="M2318 2485 c-8 -18 -8 -32 2 -55 14 -35 29 -35 47 0 9 19 9 29 -3 52
-18 34 -31 36 -46 3z"/>
<path d="M2060 2434 c0 -6 7 -19 16 -30 14 -18 14 -18 3 6 -14 31 -19 36 -19
24z"/>
</g>
</svg>
